
<svg width="65px" height="42px" viewBox="0 0 65 42" version="1.1" xmlns="http://www.w3.org/2000/svg" xmlns:xlink="http://www.w3.org/1999/xlink">
    <g id="Page-2" stroke="none" stroke-width="1" fill="none" fill-rule="evenodd">
        <g id="SearchHotels" transform="translate(-88.000000, -36.000000)" fill="#FFFFFF" fill-rule="nonzero">
            <g id="Top-Bar" transform="translate(88.000000, 29.000000)">
                <g id="noun_Hotel_1104322" transform="translate(0.000000, 7.000000)">
                    <path d="M62.6380814,17.1471512 L21.7712209,17.1471512 C20.5558721,17.1471512 19.5604651,16.1525 19.5604651,14.9363953 L19.5604651,13.8125 C19.5604651,12.5963953 18.565814,11.6017442 17.3497093,11.6017442 L6.05936047,11.6017442 C5.525,11.6017442 5.03372093,11.4097674 4.65052326,11.090814 C4.16151163,10.684186 3.84860465,10.0719767 3.84860465,9.39023256 L3.84860465,2.72093023 C3.84860465,1.50482558 3.01645349,0.510174419 1.99988372,0.510174419 C0.983313953,0.510174419 0.151918605,1.50482558 0.151918605,2.72093023 L0.151918605,11.090814 L0.151918605,31.9255814 L0.151918605,36.8708721 L0.151918605,39.6046512 C0.151918605,40.8207558 0.983313953,41.815407 1.99988372,41.815407 C3.01645349,41.815407 3.84860465,40.8207558 3.84860465,39.6046512 L3.84860465,37.842093 C3.84860465,37.4936628 3.9325,37.1648837 4.07761628,36.8701163 C4.43965116,36.1384884 5.19168605,35.6313372 6.05936047,35.6313372 L58.9406395,35.6313372 C59.8075581,35.6313372 60.5603488,36.1384884 60.9223837,36.8701163 C61.0675,37.1641279 61.1513953,37.4936628 61.1513953,37.842093 L61.1513953,39.6046512 C61.1513953,40.8207558 61.9835465,41.815407 63.0001163,41.815407 C64.016686,41.815407 64.8488372,40.8207558 64.8488372,39.6046512 L64.8488372,36.8701163 L64.8488372,31.9255814 L64.8488372,19.357907 C64.8488372,18.1410465 63.8534302,17.1471512 62.6380814,17.1471512 Z M5.87343023,31.9255814 C4.74348837,31.829593 3.84860465,30.8772674 3.84860465,29.7238953 L3.84860465,17.509186 C3.84860465,16.2930814 4.84325581,15.2984302 6.05936047,15.2984302 L13.6522674,15.2984302 C14.8683721,15.2984302 15.8630233,16.2930814 15.8630233,17.509186 L15.8630233,29.7238953 C15.8630233,30.8765116 14.9681395,31.829593 13.8381977,31.9255814 L5.87343023,31.9255814 Z M21.5852907,31.9255814 C20.4553488,31.829593 19.5604651,30.8772674 19.5604651,29.7238953 L19.5604651,23.054593 C19.5604651,21.8384884 20.5551163,20.8438372 21.7712209,20.8438372 L58.9406395,20.8438372 C60.1567442,20.8438372 61.1513953,21.8384884 61.1513953,23.054593 L61.1513953,29.7238953 C61.1513953,30.8765116 60.2565116,31.829593 59.1265698,31.9255814 L21.5852907,31.9255814 Z" id="Shape"></path>
                </g>
            </g>
        </g>
    </g>
</svg>
